<svg xmlns="http://www.w3.org/2000/svg" width="64.687" height="52.498" viewBox="0 0 64.687 52.498">
  <g id="noun_drawn_up_arrow_3905710" data-name="noun_drawn up arrow_3905710" transform="translate(12.148) rotate(20)" opacity="0.6">
    <path id="Path_11" data-name="Path 11" d="M.847,35.422a1.637,1.637,0,0,0,.55.1,1.876,1.876,0,0,0,.3-.03,5.211,5.211,0,0,0,.783-.257l.759-.275c1.01-.365,2.014-.753,3.036-1.076.872-.251,1.793-.406,2.671-.6A1.046,1.046,0,1,0,8.6,31.221l-1.661.329a16.067,16.067,0,0,0-1.679.46c-.359.114-.723.239-1.082.371l.143-.173.657-.777c.376-.454.777-.878,1.2-1.3,1.912-1.984,3.938-3.854,5.91-5.773.6-.562,1.159-1.106,1.739-1.661.4-.376.795-.759,1.2-1.129l1.858-1.721c.556-.508,1.135-1,1.7-1.494,2.044-1.793,4.123-3.585,6.257-5.3.52-.418,1.04-.855,1.572-1.261l2.02-1.53c.6-.436,1.2-.855,1.793-1.279s1.135-.795,1.709-1.2c.962-.669,1.954-1.285,2.94-1.912l1.966-1.123c.221-.12.442-.227.663-.341l1.279-.645c.209-.114.43-.2.651-.3l1.261-.6c.257-.114.532-.2.795-.311l.681-.263c.114-.042.221-.1.335-.131L44,1.682a18.07,18.07,0,0,1,1.87-.436,14.185,14.185,0,0,1,1.793-.2,10.117,10.117,0,0,1,2.54.275,8.21,8.21,0,0,1,1.661.6c.233.12.46.227.687.353h0l.257.137-.108-.06.424.233h-.042a7.613,7.613,0,0,1,1.392.938,1.96,1.96,0,0,1,.251.3c.12.227.233.46.329.693a.449.449,0,1,0,.813-.382q-.108-.251-.233-.5a3.179,3.179,0,0,0-.293-.5,3.024,3.024,0,0,0-.52-.514,12.632,12.632,0,0,0-1.631-1l-.866-.49A9.5,9.5,0,0,0,49.55.165a10.756,10.756,0,0,0-3.036-.1A13.489,13.489,0,0,0,45.05.272a12.459,12.459,0,0,0-1.321.311c-.681.2-1.374.388-2.05.633l-1.327.49c-.245.1-.49.2-.729.3l-1.2.52c-.257.108-.5.239-.747.365l-1.237.6c-.2.1-.4.215-.6.329-.633.353-1.285.693-1.9,1.082l-2.2,1.386-.538.365-1.249.861c-1.094.753-2.175,1.536-3.239,2.337-.5.376-1.01.747-1.506,1.147l-2.163,1.727c-.454.365-.9.747-1.357,1.129s-1.01.831-1.5,1.255C18,17,15.81,18.887,13.695,20.859l-6.43,6.036c-.789.735-1.584,1.464-2.39,2.211-.46.448-.926.9-1.345,1.4q-.317.371-.6.753a6.089,6.089,0,0,0-.6.9.782.782,0,0,0-.036.161c0-.645.06-1.291.078-1.942,0-.562.03-1.117,0-1.685q0-.538-.036-1.076a2.516,2.516,0,0,0-.263-1.064.956.956,0,0,0-1.016-.538.938.938,0,0,0-.783.831c0,.454-.048.9-.078,1.357s-.054.974-.078,1.464c-.048.962-.1,1.924-.12,2.892v.9a4.673,4.673,0,0,0,.066,1,1.3,1.3,0,0,0,.777.974ZM2.281,32.5v.084a.837.837,0,0,0,.191.4l-.221.078a2.552,2.552,0,0,1,.03-.562Z" transform="translate(0 0)" fill="#2d3748"/>
  </g>
</svg>
