<svg xmlns="http://www.w3.org/2000/svg" width="19.209" height="16.523" viewBox="0 0 19.209 16.523"><defs><style>.a{fill:#81dbc0;}</style></defs><path class="a" d="M11.963,5.787a5.981,5.981,0,0,0-4.4-1.68c-2.588,0-4.678,1.328-5.205,2.588V19.6a.949.949,0,0,0,1.025,1.035,1.4,1.4,0,0,0,.928-.322,4.917,4.917,0,0,1,3.252-1.055,5.262,5.262,0,0,1,3.32,1,1.628,1.628,0,0,0,1.084.381,1.705,1.705,0,0,0,1.074-.381,5.487,5.487,0,0,1,3.32-1,4.927,4.927,0,0,1,3.252,1.055,1.4,1.4,0,0,0,.928.322A.949.949,0,0,0,21.563,19.6V6.7c-.527-1.26-2.617-2.588-5.205-2.588A5.956,5.956,0,0,0,11.963,5.787Zm-8,1.4c.225-.566,1.543-1.572,3.594-1.572s3.408,1.016,3.594,1.572V18.746A6.181,6.181,0,0,0,7.559,17.74a5.938,5.938,0,0,0-3.594,1.045Zm15.986,0v11.6a5.9,5.9,0,0,0-3.594-1.045,6.2,6.2,0,0,0-3.594,1.006V7.184c.2-.557,1.543-1.572,3.594-1.572S19.736,6.617,19.951,7.184Z" transform="translate(-2.354 -4.107)"/></svg>